<mxfile host="app.diagrams.net" modified="2022-04-07T05:50:10.266Z" agent="5.0 (Windows NT 10.0; Win64; x64) AppleWebKit/537.36 (KHTML, like Gecko) Chrome/100.0.4896.60 Safari/537.36 Edg/100.0.1185.29" etag="XQkvZa6qXOFtuM2Pu6Io" version="17.4.0" type="github">
  <diagram id="C5RBs43oDa-KdzZeNtuy" name="Page-1">
    <mxGraphModel dx="1198" dy="573" grid="1" gridSize="10" guides="1" tooltips="1" connect="1" arrows="1" fold="1" page="1" pageScale="1" pageWidth="827" pageHeight="1169" math="0" shadow="0">
      <root>
        <mxCell id="WIyWlLk6GJQsqaUBKTNV-0" />
        <mxCell id="WIyWlLk6GJQsqaUBKTNV-1" parent="WIyWlLk6GJQsqaUBKTNV-0" />
        <mxCell id="HpL3-V4sa4N1ox7pWsq2-22" style="edgeStyle=none;curved=1;rounded=0;orthogonalLoop=1;jettySize=auto;html=1;exitX=0.5;exitY=1;exitDx=0;exitDy=0;exitPerimeter=0;entryX=0.5;entryY=0;entryDx=0;entryDy=0;endArrow=open;startSize=14;endSize=14;sourcePerimeterSpacing=8;targetPerimeterSpacing=8;" edge="1" parent="WIyWlLk6GJQsqaUBKTNV-1" source="HpL3-V4sa4N1ox7pWsq2-1" target="HpL3-V4sa4N1ox7pWsq2-4">
          <mxGeometry relative="1" as="geometry" />
        </mxCell>
        <mxCell id="HpL3-V4sa4N1ox7pWsq2-1" value="start" style="strokeWidth=2;html=1;shape=mxgraph.flowchart.start_1;whiteSpace=wrap;hachureGap=4;" vertex="1" parent="WIyWlLk6GJQsqaUBKTNV-1">
          <mxGeometry x="210" y="40" width="100" height="60" as="geometry" />
        </mxCell>
        <mxCell id="HpL3-V4sa4N1ox7pWsq2-25" style="edgeStyle=none;curved=1;rounded=0;orthogonalLoop=1;jettySize=auto;html=1;exitX=0.5;exitY=1;exitDx=0;exitDy=0;entryX=0.5;entryY=0;entryDx=0;entryDy=0;endArrow=open;startSize=14;endSize=14;sourcePerimeterSpacing=8;targetPerimeterSpacing=8;" edge="1" parent="WIyWlLk6GJQsqaUBKTNV-1" source="HpL3-V4sa4N1ox7pWsq2-3" target="HpL3-V4sa4N1ox7pWsq2-7">
          <mxGeometry relative="1" as="geometry" />
        </mxCell>
        <mxCell id="HpL3-V4sa4N1ox7pWsq2-3" value="SMS is sent to user that engine is on, LCD Output&amp;nbsp;" style="shape=parallelogram;perimeter=parallelogramPerimeter;whiteSpace=wrap;html=1;fixedSize=1;hachureGap=4;" vertex="1" parent="WIyWlLk6GJQsqaUBKTNV-1">
          <mxGeometry x="200" y="370" width="120" height="60" as="geometry" />
        </mxCell>
        <mxCell id="HpL3-V4sa4N1ox7pWsq2-23" style="edgeStyle=none;curved=1;rounded=0;orthogonalLoop=1;jettySize=auto;html=1;exitX=0.5;exitY=1;exitDx=0;exitDy=0;entryX=0.5;entryY=0;entryDx=0;entryDy=0;endArrow=open;startSize=14;endSize=14;sourcePerimeterSpacing=8;targetPerimeterSpacing=8;" edge="1" parent="WIyWlLk6GJQsqaUBKTNV-1" source="HpL3-V4sa4N1ox7pWsq2-4" target="HpL3-V4sa4N1ox7pWsq2-11">
          <mxGeometry relative="1" as="geometry" />
        </mxCell>
        <mxCell id="HpL3-V4sa4N1ox7pWsq2-4" value="push button is pressed igniting motor" style="rounded=0;whiteSpace=wrap;html=1;hachureGap=4;" vertex="1" parent="WIyWlLk6GJQsqaUBKTNV-1">
          <mxGeometry x="200" y="150" width="120" height="60" as="geometry" />
        </mxCell>
        <mxCell id="HpL3-V4sa4N1ox7pWsq2-26" style="edgeStyle=none;curved=1;rounded=0;orthogonalLoop=1;jettySize=auto;html=1;exitX=0.5;exitY=1;exitDx=0;exitDy=0;entryX=0.5;entryY=0;entryDx=0;entryDy=0;endArrow=open;startSize=14;endSize=14;sourcePerimeterSpacing=8;targetPerimeterSpacing=8;" edge="1" parent="WIyWlLk6GJQsqaUBKTNV-1" source="HpL3-V4sa4N1ox7pWsq2-7" target="HpL3-V4sa4N1ox7pWsq2-8">
          <mxGeometry relative="1" as="geometry" />
        </mxCell>
        <mxCell id="HpL3-V4sa4N1ox7pWsq2-7" value="a delay awaiting the user command" style="rounded=0;whiteSpace=wrap;html=1;hachureGap=4;" vertex="1" parent="WIyWlLk6GJQsqaUBKTNV-1">
          <mxGeometry x="200" y="470" width="120" height="60" as="geometry" />
        </mxCell>
        <mxCell id="HpL3-V4sa4N1ox7pWsq2-27" value="No" style="edgeStyle=none;curved=1;rounded=0;orthogonalLoop=1;jettySize=auto;html=1;exitX=0.5;exitY=1;exitDx=0;exitDy=0;entryX=0.5;entryY=0;entryDx=0;entryDy=0;endArrow=open;startSize=14;endSize=14;sourcePerimeterSpacing=8;targetPerimeterSpacing=8;" edge="1" parent="WIyWlLk6GJQsqaUBKTNV-1" source="HpL3-V4sa4N1ox7pWsq2-8" target="HpL3-V4sa4N1ox7pWsq2-10">
          <mxGeometry relative="1" as="geometry" />
        </mxCell>
        <mxCell id="HpL3-V4sa4N1ox7pWsq2-30" value="yes" style="edgeStyle=none;curved=1;rounded=0;orthogonalLoop=1;jettySize=auto;html=1;exitX=1;exitY=0.5;exitDx=0;exitDy=0;entryX=0;entryY=0.5;entryDx=0;entryDy=0;endArrow=open;startSize=14;endSize=14;sourcePerimeterSpacing=8;targetPerimeterSpacing=8;" edge="1" parent="WIyWlLk6GJQsqaUBKTNV-1" source="HpL3-V4sa4N1ox7pWsq2-8" target="HpL3-V4sa4N1ox7pWsq2-13">
          <mxGeometry relative="1" as="geometry" />
        </mxCell>
        <mxCell id="HpL3-V4sa4N1ox7pWsq2-8" value="theft detected?&amp;nbsp;" style="rhombus;whiteSpace=wrap;html=1;hachureGap=4;" vertex="1" parent="WIyWlLk6GJQsqaUBKTNV-1">
          <mxGeometry x="220" y="584.5" width="80" height="80" as="geometry" />
        </mxCell>
        <mxCell id="HpL3-V4sa4N1ox7pWsq2-29" style="edgeStyle=none;curved=1;rounded=0;orthogonalLoop=1;jettySize=auto;html=1;exitX=0.5;exitY=1;exitDx=0;exitDy=0;entryX=0.5;entryY=0;entryDx=0;entryDy=0;endArrow=open;startSize=14;endSize=14;sourcePerimeterSpacing=8;targetPerimeterSpacing=8;" edge="1" parent="WIyWlLk6GJQsqaUBKTNV-1" source="HpL3-V4sa4N1ox7pWsq2-10" target="HpL3-V4sa4N1ox7pWsq2-17">
          <mxGeometry relative="1" as="geometry" />
        </mxCell>
        <mxCell id="HpL3-V4sa4N1ox7pWsq2-10" value="LCD and GSM &lt;br&gt;output to proceed&amp;nbsp;" style="shape=parallelogram;perimeter=parallelogramPerimeter;whiteSpace=wrap;html=1;fixedSize=1;hachureGap=4;" vertex="1" parent="WIyWlLk6GJQsqaUBKTNV-1">
          <mxGeometry x="200" y="730" width="120" height="60" as="geometry" />
        </mxCell>
        <mxCell id="HpL3-V4sa4N1ox7pWsq2-24" style="edgeStyle=none;curved=1;rounded=0;orthogonalLoop=1;jettySize=auto;html=1;exitX=0.5;exitY=1;exitDx=0;exitDy=0;entryX=0.5;entryY=0;entryDx=0;entryDy=0;endArrow=open;startSize=14;endSize=14;sourcePerimeterSpacing=8;targetPerimeterSpacing=8;" edge="1" parent="WIyWlLk6GJQsqaUBKTNV-1" source="HpL3-V4sa4N1ox7pWsq2-11" target="HpL3-V4sa4N1ox7pWsq2-3">
          <mxGeometry relative="1" as="geometry" />
        </mxCell>
        <mxCell id="HpL3-V4sa4N1ox7pWsq2-11" value="Initialising system, GPS gets coordinates&amp;nbsp;" style="rounded=0;whiteSpace=wrap;html=1;hachureGap=4;" vertex="1" parent="WIyWlLk6GJQsqaUBKTNV-1">
          <mxGeometry x="200" y="260" width="120" height="60" as="geometry" />
        </mxCell>
        <mxCell id="HpL3-V4sa4N1ox7pWsq2-32" style="edgeStyle=none;curved=1;rounded=0;orthogonalLoop=1;jettySize=auto;html=1;exitX=0.5;exitY=1;exitDx=0;exitDy=0;entryX=0.5;entryY=0;entryDx=0;entryDy=0;endArrow=open;startSize=14;endSize=14;sourcePerimeterSpacing=8;targetPerimeterSpacing=8;" edge="1" parent="WIyWlLk6GJQsqaUBKTNV-1" source="HpL3-V4sa4N1ox7pWsq2-13" target="HpL3-V4sa4N1ox7pWsq2-15">
          <mxGeometry relative="1" as="geometry" />
        </mxCell>
        <mxCell id="HpL3-V4sa4N1ox7pWsq2-35" style="edgeStyle=orthogonalEdgeStyle;rounded=0;orthogonalLoop=1;jettySize=auto;html=1;exitX=1;exitY=0.5;exitDx=0;exitDy=0;entryX=0.594;entryY=0.011;entryDx=0;entryDy=0;entryPerimeter=0;endArrow=open;startSize=14;endSize=14;sourcePerimeterSpacing=8;targetPerimeterSpacing=8;" edge="1" parent="WIyWlLk6GJQsqaUBKTNV-1" source="HpL3-V4sa4N1ox7pWsq2-13" target="HpL3-V4sa4N1ox7pWsq2-16">
          <mxGeometry relative="1" as="geometry" />
        </mxCell>
        <mxCell id="HpL3-V4sa4N1ox7pWsq2-13" value="user sends stop command to system&amp;nbsp;" style="shape=parallelogram;perimeter=parallelogramPerimeter;whiteSpace=wrap;html=1;fixedSize=1;hachureGap=4;" vertex="1" parent="WIyWlLk6GJQsqaUBKTNV-1">
          <mxGeometry x="370" y="594.5" width="120" height="60" as="geometry" />
        </mxCell>
        <mxCell id="HpL3-V4sa4N1ox7pWsq2-34" style="edgeStyle=none;curved=1;rounded=0;orthogonalLoop=1;jettySize=auto;html=1;exitX=1;exitY=0.5;exitDx=0;exitDy=0;endArrow=open;startSize=14;endSize=14;sourcePerimeterSpacing=8;targetPerimeterSpacing=8;" edge="1" parent="WIyWlLk6GJQsqaUBKTNV-1" source="HpL3-V4sa4N1ox7pWsq2-15">
          <mxGeometry relative="1" as="geometry">
            <mxPoint x="442" y="720" as="targetPoint" />
          </mxGeometry>
        </mxCell>
        <mxCell id="HpL3-V4sa4N1ox7pWsq2-36" style="edgeStyle=orthogonalEdgeStyle;rounded=0;orthogonalLoop=1;jettySize=auto;html=1;exitX=0.5;exitY=1;exitDx=0;exitDy=0;entryX=0.5;entryY=0;entryDx=0;entryDy=0;endArrow=open;startSize=14;endSize=14;sourcePerimeterSpacing=8;targetPerimeterSpacing=8;" edge="1" parent="WIyWlLk6GJQsqaUBKTNV-1" source="HpL3-V4sa4N1ox7pWsq2-15" target="HpL3-V4sa4N1ox7pWsq2-20">
          <mxGeometry relative="1" as="geometry" />
        </mxCell>
        <mxCell id="HpL3-V4sa4N1ox7pWsq2-15" value="relay cuts power to engine bypass to pushbutton still on&amp;nbsp;" style="rounded=0;whiteSpace=wrap;html=1;hachureGap=4;" vertex="1" parent="WIyWlLk6GJQsqaUBKTNV-1">
          <mxGeometry x="370" y="690" width="120" height="60" as="geometry" />
        </mxCell>
        <mxCell id="HpL3-V4sa4N1ox7pWsq2-37" style="edgeStyle=orthogonalEdgeStyle;rounded=0;orthogonalLoop=1;jettySize=auto;html=1;exitX=0.5;exitY=1;exitDx=0;exitDy=0;entryX=0.5;entryY=0;entryDx=0;entryDy=0;endArrow=open;startSize=14;endSize=14;sourcePerimeterSpacing=8;targetPerimeterSpacing=8;" edge="1" parent="WIyWlLk6GJQsqaUBKTNV-1" source="HpL3-V4sa4N1ox7pWsq2-16" target="HpL3-V4sa4N1ox7pWsq2-20">
          <mxGeometry relative="1" as="geometry" />
        </mxCell>
        <mxCell id="HpL3-V4sa4N1ox7pWsq2-16" value="buzzer siren starts signaling the theft&amp;nbsp;" style="shape=parallelogram;perimeter=parallelogramPerimeter;whiteSpace=wrap;html=1;fixedSize=1;hachureGap=4;" vertex="1" parent="WIyWlLk6GJQsqaUBKTNV-1">
          <mxGeometry x="560" y="690" width="120" height="60" as="geometry" />
        </mxCell>
        <mxCell id="HpL3-V4sa4N1ox7pWsq2-17" value="STOP" style="ellipse;whiteSpace=wrap;html=1;hachureGap=4;" vertex="1" parent="WIyWlLk6GJQsqaUBKTNV-1">
          <mxGeometry x="200" y="840" width="120" height="80" as="geometry" />
        </mxCell>
        <mxCell id="HpL3-V4sa4N1ox7pWsq2-39" style="edgeStyle=orthogonalEdgeStyle;rounded=0;orthogonalLoop=1;jettySize=auto;html=1;exitX=0.5;exitY=1;exitDx=0;exitDy=0;entryX=0.5;entryY=0;entryDx=0;entryDy=0;endArrow=open;startSize=14;endSize=14;sourcePerimeterSpacing=8;targetPerimeterSpacing=8;" edge="1" parent="WIyWlLk6GJQsqaUBKTNV-1" source="HpL3-V4sa4N1ox7pWsq2-20" target="HpL3-V4sa4N1ox7pWsq2-21">
          <mxGeometry relative="1" as="geometry" />
        </mxCell>
        <mxCell id="HpL3-V4sa4N1ox7pWsq2-20" value="Motor stops , GPS obtains current coordinates" style="rounded=0;whiteSpace=wrap;html=1;hachureGap=4;" vertex="1" parent="WIyWlLk6GJQsqaUBKTNV-1">
          <mxGeometry x="460" y="840" width="120" height="60" as="geometry" />
        </mxCell>
        <mxCell id="HpL3-V4sa4N1ox7pWsq2-41" style="edgeStyle=orthogonalEdgeStyle;rounded=0;orthogonalLoop=1;jettySize=auto;html=1;exitX=0.5;exitY=1;exitDx=0;exitDy=0;entryX=0.5;entryY=0;entryDx=0;entryDy=0;endArrow=open;startSize=14;endSize=14;sourcePerimeterSpacing=8;targetPerimeterSpacing=8;" edge="1" parent="WIyWlLk6GJQsqaUBKTNV-1" source="HpL3-V4sa4N1ox7pWsq2-21" target="HpL3-V4sa4N1ox7pWsq2-40">
          <mxGeometry relative="1" as="geometry" />
        </mxCell>
        <mxCell id="HpL3-V4sa4N1ox7pWsq2-21" value="GSM sends the coordinates to user to retrieve vehicle" style="shape=parallelogram;perimeter=parallelogramPerimeter;whiteSpace=wrap;html=1;fixedSize=1;hachureGap=4;" vertex="1" parent="WIyWlLk6GJQsqaUBKTNV-1">
          <mxGeometry x="460" y="950" width="120" height="60" as="geometry" />
        </mxCell>
        <mxCell id="HpL3-V4sa4N1ox7pWsq2-40" value="STOP" style="ellipse;whiteSpace=wrap;html=1;hachureGap=4;" vertex="1" parent="WIyWlLk6GJQsqaUBKTNV-1">
          <mxGeometry x="460" y="1050" width="120" height="80" as="geometry" />
        </mxCell>
      </root>
    </mxGraphModel>
  </diagram>
</mxfile>
